<?xml version="1.0" standalone="no"?>
<!DOCTYPE svg PUBLIC "-//W3C//DTD SVG 20010904//EN"
 "http://www.w3.org/TR/2001/REC-SVG-20010904/DTD/svg10.dtd">
<svg version="1.0" xmlns="http://www.w3.org/2000/svg"
 width="700.000000pt" height="700.000000pt" viewBox="0 0 700.000000 700.000000"
 preserveAspectRatio="xMidYMid meet">
<metadata>
Created by potrace 1.11, written by Peter Selinger 2001-2013
</metadata>
<g transform="translate(0.000000,700.000000) scale(0.100000,-0.100000)"
fill="#000000" stroke="none">
<path d="M2675 6378 c-753 -324 -1656 -712 -2005 -863 -633 -272 -635 -273
-633 -301 2 -32 426 -4258 427 -4260 2 -3 4251 -915 4270 -917 15 -2 242 372
1126 1856 l1108 1857 -1410 1558 c-776 856 -1433 1580 -1462 1609 l-51 51
-1370 -590z m991 -878 c188 -48 372 -172 490 -330 61 -82 135 -257 149 -352 9
-57 -20 -98 -69 -98 -45 0 -62 23 -86 114 -38 150 -143 311 -260 397 -146 109
-342 165 -505 144 l-58 -7 81 -33 c112 -46 205 -110 294 -203 92 -97 150 -193
194 -320 42 -122 44 -173 8 -201 -33 -26 -54 -26 -87 -1 -17 13 -29 37 -36 69
-69 322 -361 570 -672 571 -63 0 -70 -2 -114 -39 -73 -60 -131 -137 -181 -236
-59 -119 -78 -217 -71 -355 13 -248 131 -486 352 -705 122 -122 257 -224 565
-427 325 -215 456 -329 567 -493 159 -235 209 -526 137 -800 -26 -97 -117
-272 -185 -353 -76 -92 -199 -189 -309 -246 -82 -43 -241 -96 -286 -96 -12 0
-60 -18 -108 -41 -273 -128 -574 -125 -841 9 -295 147 -482 410 -526 740 -20
152 8 378 52 417 26 25 79 22 101 -6 22 -26 22 -44 3 -134 -62 -293 60 -621
298 -800 164 -123 407 -195 573 -170 l48 7 -85 32 c-379 143 -618 491 -619
899 0 112 21 246 45 284 28 43 92 42 121 -2 15 -24 15 -31 -1 -109 -24 -115
-17 -310 15 -411 105 -331 393 -556 730 -572 l105 -5 62 47 c125 93 222 230
274 385 57 171 51 386 -17 556 -83 212 -250 380 -604 609 -281 182 -395 264
-533 388 -263 236 -426 529 -456 819 -46 454 250 853 699 944 47 9 114 31 150
49 76 38 180 71 265 85 85 13 237 4 331 -20z"/>
<path d="M2715 5153 c-55 -29 -129 -93 -182 -155 -130 -152 -190 -360 -163
-557 30 -219 132 -422 305 -609 113 -122 257 -234 545 -426 307 -204 392 -269
498 -377 165 -169 251 -331 287 -538 43 -246 -17 -526 -153 -709 -13 -18 -22
-36 -19 -38 11 -11 175 126 230 191 67 80 137 216 163 320 25 96 24 293 0 390
-71 276 -239 459 -686 745 -603 387 -862 697 -936 1121 -33 189 -5 364 87 547
31 61 56 112 55 112 0 -1 -14 -8 -31 -17z"/>
</g>
</svg>
